# xmcd
#
# Track frame offsets: 
#        150
#        18602
#        47652
#        78572
#        95787
#        118252
#        142135
#        160327
#        182195
#        203955
#        226315
#        248175
#
# Disc length: 3669 seconds
#
# Revision: 1
# Processed by: cddbd v1.5.2PL0 Copyright (c) Steve Scherf et al.
# Submitted via: ExactAudioCopy v0.90b4
#
DISCID=b00e530c
DTITLE=The Johan Leijonhufvud Trio - Speaks The Local Bebop
DYEAR=1995
DGENRE=Jazz
TTITLE0=Agnohat
TTITLE1=Take The Next Train
TTITLE2=Vals
TTITLE3=Local Bebop
TTITLE4=What Kind Of Love
TTITLE5=Bag Beetle Blues
TTITLE6=Orion
TTITLE7=Argentum
TTITLE8=Have You Met Miss Jones?
TTITLE9=I Tell You
TTITLE10=Sweet Georgia Bright
TTITLE11=Lawns
EXTD=YEAR: 1995
EXTT0=
EXTT1=
EXTT2=
EXTT3=
EXTT4=
EXTT5=
EXTT6=
EXTT7=
EXTT8=
EXTT9=
EXTT10=
EXTT11=
PLAYORDER=
